<svg width="100" height="30" viewBox="0 0 199 61" fill="none" xmlns="http://www.w3.org/2000/svg">
<path d="M85.032 31.288C83.736 31.288 82.528 31.08 81.408 30.664C80.304 30.232 79.344 29.624 78.528 28.84C77.712 28.056 77.072 27.136 76.608 26.08C76.16 25.024 75.936 23.864 75.936 22.6C75.936 21.336 76.16 20.176 76.608 19.12C77.072 18.064 77.712 17.144 78.528 16.36C79.36 15.576 80.328 14.976 81.432 14.56C82.536 14.128 83.744 13.912 85.056 13.912C86.512 13.912 87.824 14.168 88.992 14.68C90.176 15.176 91.168 15.912 91.968 16.888L89.472 19.192C88.896 18.536 88.256 18.048 87.552 17.728C86.848 17.392 86.08 17.224 85.248 17.224C84.464 17.224 83.744 17.352 83.088 17.608C82.432 17.864 81.864 18.232 81.384 18.712C80.904 19.192 80.528 19.76 80.256 20.416C80 21.072 79.872 21.8 79.872 22.6C79.872 23.4 80 24.128 80.256 24.784C80.528 25.44 80.904 26.008 81.384 26.488C81.864 26.968 82.432 27.336 83.088 27.592C83.744 27.848 84.464 27.976 85.248 27.976C86.08 27.976 86.848 27.816 87.552 27.496C88.256 27.16 88.896 26.656 89.472 25.984L91.968 28.288C91.168 29.264 90.176 30.008 88.992 30.52C87.824 31.032 86.504 31.288 85.032 31.288ZM94.4809 31L101.969 14.2H105.809L113.321 31H109.241L103.097 16.168H104.633L98.4649 31H94.4809ZM98.2249 27.4L99.2569 24.448H107.897L108.953 27.4H98.2249ZM117.464 31V14.2H120.68L127.832 26.056H126.128L133.16 14.2H136.352L136.4 31H132.752L132.728 19.792H133.4L127.784 29.224H126.032L120.296 19.792H121.112V31H117.464ZM142.786 31V14.2H150.058C151.562 14.2 152.858 14.448 153.946 14.944C155.034 15.424 155.874 16.12 156.466 17.032C157.058 17.944 157.354 19.032 157.354 20.296C157.354 21.544 157.058 22.624 156.466 23.536C155.874 24.448 155.034 25.152 153.946 25.648C152.858 26.128 151.562 26.368 150.058 26.368H144.946L146.674 24.616V31H142.786ZM146.674 25.048L144.946 23.2H149.842C151.042 23.2 151.938 22.944 152.53 22.432C153.122 21.92 153.418 21.208 153.418 20.296C153.418 19.368 153.122 18.648 152.53 18.136C151.938 17.624 151.042 17.368 149.842 17.368H144.946L146.674 15.52V25.048ZM169.9 31.288C167.516 31.288 165.652 30.624 164.308 29.296C162.964 27.968 162.292 26.072 162.292 23.608V14.2H166.18V23.464C166.18 25.064 166.508 26.216 167.164 26.92C167.82 27.624 168.74 27.976 169.924 27.976C171.108 27.976 172.028 27.624 172.684 26.92C173.34 26.216 173.668 25.064 173.668 23.464V14.2H177.508V23.608C177.508 26.072 176.836 27.968 175.492 29.296C174.148 30.624 172.284 31.288 169.9 31.288ZM189.27 31.288C187.926 31.288 186.638 31.112 185.406 30.76C184.174 30.392 183.182 29.92 182.43 29.344L183.75 26.416C184.47 26.928 185.318 27.352 186.294 27.688C187.286 28.008 188.286 28.168 189.294 28.168C190.062 28.168 190.678 28.096 191.142 27.952C191.622 27.792 191.974 27.576 192.198 27.304C192.422 27.032 192.534 26.72 192.534 26.368C192.534 25.92 192.358 25.568 192.006 25.312C191.654 25.04 191.19 24.824 190.614 24.664C190.038 24.488 189.398 24.328 188.694 24.184C188.006 24.024 187.31 23.832 186.606 23.608C185.918 23.384 185.286 23.096 184.71 22.744C184.134 22.392 183.662 21.928 183.294 21.352C182.942 20.776 182.766 20.04 182.766 19.144C182.766 18.184 183.022 17.312 183.534 16.528C184.062 15.728 184.846 15.096 185.886 14.632C186.942 14.152 188.262 13.912 189.846 13.912C190.902 13.912 191.942 14.04 192.966 14.296C193.99 14.536 194.894 14.904 195.678 15.4L194.478 18.352C193.694 17.904 192.91 17.576 192.126 17.368C191.342 17.144 190.574 17.032 189.822 17.032C189.07 17.032 188.454 17.12 187.974 17.296C187.494 17.472 187.15 17.704 186.942 17.992C186.734 18.264 186.63 18.584 186.63 18.952C186.63 19.384 186.806 19.736 187.158 20.008C187.51 20.264 187.974 20.472 188.55 20.632C189.126 20.792 189.758 20.952 190.446 21.112C191.15 21.272 191.846 21.456 192.534 21.664C193.238 21.872 193.878 22.152 194.454 22.504C195.03 22.856 195.494 23.32 195.846 23.896C196.214 24.472 196.398 25.2 196.398 26.08C196.398 27.024 196.134 27.888 195.606 28.672C195.078 29.456 194.286 30.088 193.23 30.568C192.19 31.048 190.87 31.288 189.27 31.288ZM82.032 57L74.784 40.2H78.984L85.32 55.08H82.848L89.28 40.2H93.144L85.872 57H82.032ZM96.9467 57V40.2H100.835V57H96.9467ZM107.222 57V40.2H114.494C115.998 40.2 117.294 40.448 118.382 40.944C119.47 41.424 120.31 42.12 120.902 43.032C121.494 43.944 121.79 45.032 121.79 46.296C121.79 47.544 121.494 48.624 120.902 49.536C120.31 50.432 119.47 51.12 118.382 51.6C117.294 52.08 115.998 52.32 114.494 52.32H109.382L111.11 50.616V57H107.222ZM117.902 57L113.702 50.904H117.854L122.102 57H117.902ZM111.11 51.048L109.382 49.224H114.278C115.478 49.224 116.374 48.968 116.966 48.456C117.558 47.928 117.854 47.208 117.854 46.296C117.854 45.368 117.558 44.648 116.966 44.136C116.374 43.624 115.478 43.368 114.278 43.368H109.382L111.11 41.52V51.048ZM130.516 57V43.368H125.14V40.2H139.78V43.368H134.404V57H130.516ZM151.454 57.288C149.07 57.288 147.206 56.624 145.862 55.296C144.518 53.968 143.846 52.072 143.846 49.608V40.2H147.734V49.464C147.734 51.064 148.062 52.216 148.718 52.92C149.374 53.624 150.294 53.976 151.478 53.976C152.662 53.976 153.582 53.624 154.238 52.92C154.894 52.216 155.222 51.064 155.222 49.464V40.2H159.062V49.608C159.062 52.072 158.39 53.968 157.046 55.296C155.702 56.624 153.838 57.288 151.454 57.288ZM162.745 57L170.233 40.2H174.073L181.585 57H177.505L171.361 42.168H172.897L166.729 57H162.745ZM166.489 53.4L167.521 50.448H176.161L177.217 53.4H166.489ZM185.728 57V40.2H189.616V53.832H198.04V57H185.728Z" fill="black"/>
<g clip-path="url(#clip0_502_1551)">
<path d="M33.7432 19.4503C33.7844 14.2331 38.0815 10.0431 43.3336 10.092C48.5939 10.1327 52.8087 14.3961 52.7675 19.6133C52.7264 24.8304 48.4292 29.0205 43.1772 28.9716C37.9251 28.9308 33.7021 24.6593 33.7432 19.4503Z" fill="#DF3675"/>
<path d="M54.3069 1.44294C56.3402 -0.513491 59.5837 -0.472731 61.5594 1.53261C63.5268 3.54611 63.4774 6.75792 61.4524 8.70621C59.419 10.6626 56.1756 10.6219 54.2081 8.61654C52.2324 6.61119 52.2818 3.39123 54.3152 1.44294H54.3069Z" fill="#262627"/>
<path d="M2.22263 57.242C0.913732 54.3889 2.1897 51.0222 5.07093 49.7342C7.94392 48.4381 11.3355 49.7098 12.6444 52.5711C13.9451 55.4323 12.6774 58.7909 9.79613 60.0789C6.91491 61.3669 3.53153 60.0952 2.22263 57.2339V57.242Z" fill="#3CAF97"/>
<path d="M53.2697 28.4905C51.6974 30.2268 49.6887 31.5311 47.392 32.2648C46.0584 32.6887 44.6754 32.9088 43.2842 32.9088C41.8024 32.9088 40.3618 32.6724 39.0035 32.224C39.4069 34.5554 39.1928 36.9521 38.3285 39.202C37.1184 42.3649 34.7887 44.8512 31.7757 46.1962C30.2446 46.8728 28.6229 47.2233 26.9765 47.2233C22.0537 47.2233 17.6248 44.1746 15.6821 39.4628C14.3896 36.3325 14.3485 32.8598 15.5668 29.6969C16.7769 26.534 19.1066 24.0477 22.1195 22.7108C23.6589 22.0261 25.2724 21.6837 26.9271 21.6837C27.9972 21.6837 29.0427 21.8386 30.047 22.1076C29.0592 17.1269 31.0349 12.0972 34.9204 9.04841C33.1834 8.55115 31.3641 8.21693 29.4708 8.03759C24.3587 7.56478 19.6828 8.29844 15.4351 10.2467C11.1874 12.195 7.69696 15.0726 4.96391 18.8795C2.2144 22.6538 0.609152 27.0558 0.139924 32.0528C-0.337536 37.0417 0.419814 41.6393 2.38728 45.8457C2.7001 46.506 3.02938 47.1337 3.38336 47.7532C3.59739 47.6391 3.80319 47.5331 4.02546 47.4353C5.09563 46.9462 6.24812 46.7098 7.41707 46.7098C10.6687 46.7098 13.624 48.601 14.9659 51.5356C15.8879 53.5328 15.9537 55.7583 15.1799 57.8044C15.1058 57.9919 15.0153 58.1794 14.9329 58.3587C17.8142 59.6875 20.9753 60.5352 24.4492 60.8532C29.5531 61.3341 34.2289 60.6005 38.4767 58.644C42.7244 56.6957 46.2148 53.8589 48.9396 50.1254C51.6727 46.3919 53.2614 42.0306 53.7389 37.0336C54.027 34.05 53.8624 31.205 53.2779 28.4823L53.2697 28.4905Z" fill="#262627"/>
</g>
<defs>
<clipPath id="clip0_502_1551">
<rect width="63" height="61" fill="white"/>
</clipPath>
</defs>
</svg>
